<svg id="visual" viewBox="0 0 900 600" width="900" height="600" xmlns="http://www.w3.org/2000/svg" xmlns:xlink="http://www.w3.org/1999/xlink" version="1.1"><rect x="0" y="0" width="900" height="600" fill="#001220"></rect><defs><linearGradient id="grad1_0" x1="33.3%" y1="0%" x2="100%" y2="100%"><stop offset="20%" stop-color="#001220" stop-opacity="1"></stop><stop offset="80%" stop-color="#001220" stop-opacity="1"></stop></linearGradient></defs><defs><linearGradient id="grad2_0" x1="0%" y1="0%" x2="66.7%" y2="100%"><stop offset="20%" stop-color="#001220" stop-opacity="1"></stop><stop offset="80%" stop-color="#001220" stop-opacity="1"></stop></linearGradient></defs><g transform="translate(900, 0)"><path d="M0 486.7C-63.8 479.7 -127.6 472.7 -186.3 449.7C-244.9 426.7 -298.4 387.7 -340.8 340.8C-383.2 293.9 -414.5 239.1 -437 181C-459.5 122.9 -473.1 61.4 -486.7 0L0 0Z" fill="#FBAE3C"></path></g><g transform="translate(0, 600)"><path d="M0 -486.7C68.1 -485 136.2 -483.3 186.3 -449.7C236.3 -416.1 268.3 -350.8 299.1 -299.1C330 -247.4 359.7 -209.4 390.8 -161.9C421.9 -114.3 454.3 -57.2 486.7 0L0 0Z" fill="#FBAE3C"></path></g></svg>